<?xml version="1.0" encoding="UTF-8" standalone="no"?><!-- Generator: Gravit.io --><svg xmlns="http://www.w3.org/2000/svg" xmlns:xlink="http://www.w3.org/1999/xlink" style="isolation:isolate" viewBox="0 0 1280 256" width="1280pt" height="256pt"><defs><clipPath id="_clipPath_ZtVDUjNI8aQDSAhal4xrmQSC337Pf5ti"><rect width="1280" height="256"/></clipPath></defs><g clip-path="url(#_clipPath_ZtVDUjNI8aQDSAhal4xrmQSC337Pf5ti)"><path d=" M 24 240 L 24 96 L 128 16 L 232 96 L 232 240 L 158 240 L 158 160 L 98 160 L 98 240 L 24 240" fill="none" stroke-width="27" stroke-dasharray="0,0,0" stroke="rgb(0,0,0)" stroke-linejoin="round" stroke-linecap="round" stroke-miterlimit="3"/><path d=" M 488.001 240 L 488.001 16 L 308.001 16 L 308.001 240 L 488.001 240" fill="none" stroke-width="27" stroke="rgb(0,0,0)" stroke-linejoin="round" stroke-linecap="round" stroke-miterlimit="3"/><path d=" M 310.001 33 Q 267.751 37.5 268.001 51 Q 268.251 64.5 334.001 64" fill="none" stroke-width="16" stroke="rgb(0,0,0)" stroke-linejoin="round" stroke-linecap="round" stroke-miterlimit="3"/><path d=" M 310.001 80 Q 267.751 84.5 268.001 98 Q 268.251 111.5 334.001 111" fill="none" stroke-width="16" stroke="rgb(0,0,0)" stroke-linejoin="round" stroke-linecap="round" stroke-miterlimit="3"/><path d=" M 310.001 127 Q 267.751 131.5 268.001 145 Q 268.251 158.5 334.001 158" fill="none" stroke-width="16" stroke="rgb(0,0,0)" stroke-linejoin="round" stroke-linecap="round" stroke-miterlimit="3"/><path d=" M 310.001 174 Q 267.751 178.5 268.001 192 Q 268.251 205.5 334.001 205" fill="none" stroke-width="16" stroke="rgb(0,0,0)" stroke-linejoin="round" stroke-linecap="round" stroke-miterlimit="3"/><line x1="368.001" y1="78" x2="412.001" y2="78" stroke-width="12" stroke="rgb(0,0,0)" stroke-linejoin="round" stroke-linecap="round" stroke-miterlimit="3"/><line x1="368.001" y1="100" x2="434.001" y2="100" stroke-width="12" stroke="rgb(0,0,0)" stroke-linejoin="round" stroke-linecap="round" stroke-miterlimit="3"/><path d=" M 740 228 L 740 28 L 563.077 28 L 540 49.429 L 540 228 L 740 228" fill="none" stroke-width="23.077" stroke="rgb(0,0,0)" stroke-linejoin="round" stroke-linecap="round" stroke-miterlimit="3"/><line x1="540" y1="191.462" x2="703.462" y2="28" stroke-width="23.077" stroke="rgb(0,0,0)" stroke-linejoin="round" stroke-linecap="round" stroke-miterlimit="3"/><line x1="578.462" y1="228" x2="740" y2="66.462" stroke-width="23.077" stroke="rgb(0,0,0)" stroke-linejoin="round" stroke-linecap="round" stroke-miterlimit="3"/><line x1="546.731" y1="59.731" x2="608.269" y2="121.269" stroke-width="14.423" stroke="rgb(0,0,0)" stroke-linejoin="round" stroke-linecap="round" stroke-miterlimit="3"/><line x1="572.692" y1="33.769" x2="634.231" y2="95.308" stroke-width="14.423" stroke="rgb(0,0,0)" stroke-linejoin="round" stroke-linecap="round" stroke-miterlimit="3"/><line x1="652.5" y1="166.462" x2="714.038" y2="228" stroke-width="14.423" stroke="rgb(0,0,0)" stroke-linejoin="round" stroke-linecap="round" stroke-miterlimit="3"/><line x1="678.462" y1="140.5" x2="740" y2="202.038" stroke-width="14.423" stroke="rgb(0,0,0)" stroke-linejoin="round" stroke-linecap="round" stroke-miterlimit="3"/><path d=" M 967 236 L 979 69 L 813 69 L 825 236 L 967 236" fill="none" stroke-width="24" stroke="rgb(0,0,0)" stroke-linejoin="round" stroke-linecap="round" stroke-miterlimit="3"/><line x1="832" y1="44" x2="960" y2="44" stroke-width="16" stroke="rgb(0,0,0)" stroke-linejoin="round" stroke-linecap="round" stroke-miterlimit="3"/><path d=" M 868 43 L 870 16 L 924 16 L 926 43" fill="none" stroke-width="16" stroke="rgb(0,0,0)" stroke-linejoin="round" stroke-linecap="round" stroke-miterlimit="3"/><line x1="857" y1="101" x2="865" y2="207" stroke-width="15" stroke="rgb(0,0,0)" stroke-linejoin="round" stroke-linecap="round" stroke-miterlimit="3"/><line x1="927" y1="207" x2="935" y2="101" stroke-width="15" stroke="rgb(0,0,0)" stroke-linejoin="round" stroke-linecap="round" stroke-miterlimit="3"/><line x1="896" y1="101" x2="896" y2="207" stroke-width="14" stroke="rgb(0,0,0)" stroke-linejoin="round" stroke-linecap="round" stroke-miterlimit="3"/><line x1="897" y1="101" x2="897" y2="207" stroke-width="14" stroke="rgb(0,0,0)" stroke-linejoin="round" stroke-linecap="round" stroke-miterlimit="3"/><g><mask id="_mask_OWeByxrPjMXIn7IfeXu0jLyPjW1mB95d"><ellipse cx="1151.9999995553005" cy="127.4222654477049" rx="44.21052614025007" ry="44.43857907745867" fill="white" stroke="none"/></mask><ellipse cx="1151.9999995553005" cy="127.4222654477049" rx="44.21052614025007" ry="44.43857907745867" fill="none"/><ellipse cx="1151.9999995553005" cy="127.4222654477049" rx="44.21052614025007" ry="44.43857907745867" fill="none" mask="url(#_mask_OWeByxrPjMXIn7IfeXu0jLyPjW1mB95d)" stroke-width="54" stroke="rgb(0,0,0)" stroke-linejoin="miter" stroke-linecap="square" stroke-miterlimit="3"/><line x1="1122.526" y1="240" x2="1181.474" y2="240" stroke-width="27" stroke="rgb(0,0,0)" stroke-linejoin="round" stroke-linecap="round" stroke-miterlimit="3"/><line x1="1234.526" y1="210.374" x2="1264" y2="160.011" stroke-width="27" stroke="rgb(0,0,0)" stroke-linejoin="round" stroke-linecap="round" stroke-miterlimit="3"/><line x1="1263.591" y1="98.034" x2="1234.935" y2="47.195" stroke-width="27" stroke="rgb(0,0,0)" stroke-linejoin="round" stroke-linecap="round" stroke-miterlimit="3"/><path d=" M 1181.474 240 L 1181.474 201.487 L 1202.105 189.636 L 1234.935 210.374" fill="none" stroke-width="27" stroke="rgb(0,0,0)" stroke-linejoin="round" stroke-linecap="round" stroke-miterlimit="3"/><path d=" M 1264 160.011 L 1230.511 139.582 L 1230.617 115.697 L 1264 98.034" fill="none" stroke-width="27" stroke="rgb(0,0,0)" stroke-linejoin="round" stroke-linecap="round" stroke-miterlimit="3"/><path d=" M 1235.169 46.988 L 1200.823 65.926 L 1180.297 53.891 L 1181.771 16" fill="none" stroke-width="27" stroke="rgb(0,0,0)" stroke-linejoin="round" stroke-linecap="round" stroke-miterlimit="3"/><line x1="1181.474" y1="16" x2="1122.526" y2="16" stroke-width="27" stroke="rgb(0,0,0)" stroke-linejoin="round" stroke-linecap="round" stroke-miterlimit="3"/><line x1="1069.474" y1="45.626" x2="1040" y2="95.989" stroke-width="27" stroke="rgb(0,0,0)" stroke-linejoin="round" stroke-linecap="round" stroke-miterlimit="3"/><line x1="1040.409" y1="157.966" x2="1069.065" y2="208.805" stroke-width="27" stroke="rgb(0,0,0)" stroke-linejoin="round" stroke-linecap="round" stroke-miterlimit="3"/><path d=" M 1122.526 16 L 1122.526 54.513 L 1101.895 66.364 L 1069.065 45.626" fill="none" stroke-width="27" stroke="rgb(0,0,0)" stroke-linejoin="round" stroke-linecap="round" stroke-miterlimit="3"/><path d=" M 1040 95.989 L 1073.489 116.418 L 1073.383 140.303 L 1040 157.966" fill="none" stroke-width="27" stroke="rgb(0,0,0)" stroke-linejoin="round" stroke-linecap="round" stroke-miterlimit="3"/><path d=" M 1068.831 209.012 L 1103.177 190.074 L 1123.703 202.109 L 1122.229 240" fill="none" stroke-width="27" stroke="rgb(0,0,0)" stroke-linejoin="round" stroke-linecap="round" stroke-miterlimit="3"/></g></g></svg>