<?xml version="1.0" encoding="UTF-8" standalone="no"?><!-- Generator: Gravit.io --><svg xmlns="http://www.w3.org/2000/svg" xmlns:xlink="http://www.w3.org/1999/xlink" style="isolation:isolate" viewBox="0 0 128 128" width="128pt" height="128pt"><defs><clipPath id="_clipPath_pBuSHVssTWpZplCNr4u2nIL8C6M2p4sH"><rect width="128" height="128"/></clipPath></defs><g clip-path="url(#_clipPath_pBuSHVssTWpZplCNr4u2nIL8C6M2p4sH)"><g><mask id="_mask_drNeSMda2gf9K1kWKuGKjS9gfsP3n5d3"><ellipse cx="64.00000000000003" cy="63.72144962558914" rx="21.31578947368419" ry="21.425743568846322" fill="white" stroke="none"/></mask><ellipse cx="64.00000000000003" cy="63.72144962558914" rx="21.31578947368419" ry="21.425743568846322" fill="none"/><ellipse cx="64.00000000000003" cy="63.72144962558914" rx="21.31578947368419" ry="21.425743568846322" fill="none" mask="url(#_mask_drNeSMda2gf9K1kWKuGKjS9gfsP3n5d3)" stroke-width="24" stroke="rgb(0,0,0)" stroke-linejoin="miter" stroke-linecap="square" stroke-miterlimit="3"/><line x1="49.789" y1="118" x2="78.211" y2="118" stroke-width="12" stroke="rgb(0,0,0)" stroke-linejoin="round" stroke-linecap="round" stroke-miterlimit="3"/><line x1="103.789" y1="103.716" x2="118" y2="79.434" stroke-width="12" stroke="rgb(0,0,0)" stroke-linejoin="round" stroke-linecap="round" stroke-miterlimit="3"/><line x1="117.803" y1="49.552" x2="103.987" y2="25.041" stroke-width="12" stroke="rgb(0,0,0)" stroke-linejoin="round" stroke-linecap="round" stroke-miterlimit="3"/><path d=" M 78.211 118 L 78.211 99.431 L 88.158 93.717 L 103.987 103.716" fill="none" stroke-width="12" stroke="rgb(0,0,0)" stroke-linejoin="round" stroke-linecap="round" stroke-miterlimit="3"/><path d=" M 118 79.434 L 101.853 69.584 L 101.904 58.068 L 118 49.552" fill="none" stroke-width="12" stroke="rgb(0,0,0)" stroke-linejoin="round" stroke-linecap="round" stroke-miterlimit="3"/><path d=" M 104.099 24.941 L 87.54 34.071 L 77.643 28.269 L 78.354 10" fill="none" stroke-width="12" stroke="rgb(0,0,0)" stroke-linejoin="round" stroke-linecap="round" stroke-miterlimit="3"/><line x1="78.211" y1="10" x2="49.789" y2="10" stroke-width="12" stroke="rgb(0,0,0)" stroke-linejoin="round" stroke-linecap="round" stroke-miterlimit="3"/><line x1="24.211" y1="24.284" x2="10" y2="48.566" stroke-width="12" stroke="rgb(0,0,0)" stroke-linejoin="round" stroke-linecap="round" stroke-miterlimit="3"/><line x1="10.197" y1="78.448" x2="24.013" y2="102.959" stroke-width="12" stroke="rgb(0,0,0)" stroke-linejoin="round" stroke-linecap="round" stroke-miterlimit="3"/><path d=" M 49.789 10 L 49.789 28.569 L 39.842 34.283 L 24.013 24.284" fill="none" stroke-width="12" stroke="rgb(0,0,0)" stroke-linejoin="round" stroke-linecap="round" stroke-miterlimit="3"/><path d=" M 10 48.566 L 26.147 58.416 L 26.096 69.932 L 10 78.448" fill="none" stroke-width="12" stroke="rgb(0,0,0)" stroke-linejoin="round" stroke-linecap="round" stroke-miterlimit="3"/><path d=" M 23.901 103.059 L 40.46 93.929 L 50.357 99.731 L 49.646 118" fill="none" stroke-width="12" stroke="rgb(0,0,0)" stroke-linejoin="round" stroke-linecap="round" stroke-miterlimit="3"/></g></g></svg>